<svg width="48" height="48" viewBox="0 0 48 48" fill="none" xmlns="http://www.w3.org/2000/svg">
<path fill-rule="evenodd" clip-rule="evenodd" d="M44.5165 16.4962C44.4966 16.969 44.4788 17.4432 44.4559 17.9161C44.2898 21.4266 42.8364 24.3266 40.2704 26.688C38.1136 28.6735 35.6937 30.2837 33.0662 31.5731C29.601 33.273 26.1358 34.9751 22.6426 36.6162C19.3558 38.1611 17.3715 39.3878 14.6275 41.4162C13.4627 42.2784 12.5703 43.3238 11.678 44.4335C11.7839 44.2458 11.8792 44.0513 11.9966 43.8725C13.2152 42.0178 14.8334 40.5573 16.5732 39.2132C19.0846 37.27 21.8503 35.7425 24.6316 34.2379C27.7248 32.5646 30.8836 31.001 33.8912 29.1854C36.4861 27.6214 38.8886 25.7524 40.631 23.1808C41.7415 21.5419 42.1458 19.7143 42.142 17.7728C42.1377 15.5619 41.6928 13.4466 40.6187 11.4984C38.7903 8.1823 35.9281 6.52978 32.1811 6.35139C30.8315 6.28741 29.5311 6.52173 28.3019 7.09969C28.2718 7.11367 28.2354 7.1124 28.1782 7.05647C28.5421 6.91749 28.9015 6.76367 29.2722 6.64461C29.6409 6.52597 30.0209 6.44207 30.3875 6.32385C28.1697 6.6141 26.3799 7.69841 25.0464 9.44838C24.113 10.6725 23.3524 12.0284 22.516 13.3267C22.4469 13.4331 22.3825 13.5424 22.2715 13.7216C22.1071 13.1106 21.9757 12.5729 21.8172 12.0441C21.5622 11.1912 21.3719 10.306 21.0092 9.5005C19.777 6.7641 17.5461 5.38403 14.6216 5.18234C10.7216 4.91201 7.79328 6.59164 5.80729 9.91829C4.69248 11.7869 4.10562 13.8144 4.28401 16.0119C4.41452 17.6097 5.03654 19.0453 5.83738 20.4101C7.01448 22.416 8.47463 24.2177 9.90003 26.0452C10.4547 26.7562 10.9788 27.4901 11.4725 28.2638C11.4504 28.254 11.4195 28.2515 11.4064 28.235C9.98096 26.377 8.54242 24.53 7.13694 22.6571C6.09924 21.2758 5.18739 19.816 4.59926 18.1762C3.86664 16.1322 3.9552 14.0945 4.63485 12.0594C4.70943 11.8344 4.78866 11.6115 4.86239 11.3856C4.86748 11.3708 4.84502 11.3458 4.73782 11.2971C4.51875 12.0649 4.25901 12.8229 4.08867 13.6004C3.51622 16.2182 4.20435 18.597 5.57043 20.8143C6.19881 21.8338 6.91872 22.7973 7.54583 23.7117C7.55346 23.9143 7.51151 24.0753 7.57125 24.177C7.77337 24.5215 7.99286 24.86 8.23989 25.1744C8.64369 25.6876 9.06954 26.185 9.49622 26.6808C9.83817 27.0765 10.2064 27.4494 10.5403 27.8528C10.6962 28.0388 10.7979 28.2714 10.8856 28.5125C10.2763 27.824 9.6691 27.1354 9.05852 26.4494C8.33734 25.6393 7.5899 24.8507 6.89584 24.0181C5.81365 22.7211 4.81366 21.3656 4.02342 19.8622C2.67259 17.2928 2.44378 14.6284 3.24504 11.8475C3.80605 9.89795 4.68189 8.12764 6.02424 6.59757C6.05136 6.56707 6.06958 6.52766 6.09246 6.49292C6.06831 6.4747 6.045 6.45605 6.02085 6.43656C5.65221 6.89249 5.26408 7.33316 4.91917 7.80476C4.24248 8.73144 3.76622 9.76448 3.30606 10.8132C2.46793 12.7233 2.28361 14.6936 2.6281 16.7258C2.71708 17.2508 2.88911 17.7618 3.02216 18.2792L3.0281 18.2711C2.88318 17.8538 2.69463 17.4457 2.60098 17.0169C2.05819 14.5415 2.47344 12.1725 3.48021 9.88905C4.34545 7.92637 5.4912 6.17809 7.31914 4.94887C9.40258 3.54804 11.6928 2.91415 14.1902 2.98068C16.1033 3.03068 17.9279 3.4383 19.5283 4.51752C20.2588 5.01031 20.8766 5.67005 21.5444 6.25563C21.6541 6.35182 21.7583 6.45436 21.8956 6.52258C21.4626 5.80648 20.8982 5.20565 20.2359 4.70862C17.8677 2.92856 15.1809 2.32179 12.2877 2.74805C7.71659 3.42092 4.7768 6.15012 3.07343 10.3285C2.32133 12.1742 2.03701 14.1009 2.26285 16.0924C2.27853 16.2301 2.25226 16.3729 2.2459 16.5131C2.19421 16.0165 2.14251 15.5199 2.09082 15.022C2.10268 14.9178 2.12514 14.8127 2.12472 14.7081C2.11116 12.9356 2.46709 11.2361 3.16199 9.61109C4.58612 6.27893 6.92931 3.91414 10.4301 2.79551C10.9598 2.62602 11.5047 2.50441 12.0424 2.36035C12.5157 2.31119 12.989 2.26204 13.4623 2.21289C13.8046 2.22899 14.1474 2.24086 14.4898 2.26035C18.033 2.46204 20.8944 3.88448 22.8426 6.93528C22.9613 7.12087 23.0804 7.30604 23.2041 7.5001C23.9545 6.59546 24.8363 5.89589 25.8074 5.31115C28.2218 3.85948 30.8447 3.40567 33.5942 3.88999C38.7407 4.79633 42.197 7.71875 43.8229 12.7229C44.0279 13.353 44.1593 14.0068 44.3245 14.6492C44.389 15.2652 44.4525 15.8805 44.5165 16.4962ZM5.67933 21.7469C5.26959 20.9592 4.83909 20.1809 4.45519 19.3804C3.83613 18.0906 3.46538 16.7279 3.44885 15.2915C3.42639 13.3979 3.92681 11.628 4.78358 9.95092C4.82765 9.86405 4.86027 9.77126 4.93146 9.60346C4.1785 10.2975 3.36665 12.9174 3.31665 14.8763C3.25097 17.4529 4.24672 19.6851 5.67933 21.7469ZM19.0232 6.61791C17.1224 4.55057 11.4466 4.27854 9.26953 6.14334C12.622 4.5726 15.8737 4.5315 19.0232 6.61791Z" fill="#3E588F"/>
<path fill-rule="evenodd" clip-rule="evenodd" d="M3.02246 18.2783C3.22754 18.7558 3.43347 19.2342 3.63855 19.7121C3.60593 19.7244 3.57372 19.7371 3.54152 19.749C3.36991 19.2566 3.19873 18.7643 3.02797 18.2711C3.02839 18.2702 3.02246 18.2783 3.02246 18.2783Z" fill="#3E588F"/>
</svg>
