<svg width="309" height="44" viewBox="0 0 309 44" fill="none" xmlns="http://www.w3.org/2000/svg">
<g clip-path="url(#clip0_88_6563)">
<path fill-rule="evenodd" clip-rule="evenodd" d="M42.5165 14.4962C42.4966 14.969 42.4788 15.4432 42.4559 15.9161C42.2898 19.4266 40.8364 22.3266 38.2704 24.688C36.1136 26.6735 33.6937 28.2837 31.0662 29.5731C27.601 31.273 24.1358 32.9751 20.6426 34.6162C17.3558 36.1611 15.3715 37.3878 12.6275 39.4162C11.4627 40.2784 10.5703 41.3238 9.67797 42.4335C9.7839 42.2458 9.87924 42.0513 9.99661 41.8725C11.2152 40.0178 12.8334 38.5573 14.5732 37.2132C17.0846 35.27 19.8503 33.7425 22.6316 32.2379C25.7248 30.5646 28.8836 29.001 31.8912 27.1854C34.4861 25.6214 36.8886 23.7524 38.631 21.1808C39.7415 19.5419 40.1458 17.7143 40.142 15.7728C40.1377 13.5619 39.6928 11.4466 38.6187 9.49835C36.7903 6.1823 33.9281 4.52978 30.1811 4.35139C28.8315 4.28741 27.5311 4.52173 26.3019 5.09969C26.2718 5.11367 26.2354 5.1124 26.1782 5.05647C26.5421 4.91749 26.9015 4.76367 27.2722 4.64461C27.6409 4.52597 28.0209 4.44207 28.3875 4.32385C26.1697 4.6141 24.3799 5.69841 23.0464 7.44838C22.113 8.67252 21.3524 10.0284 20.516 11.3267C20.4469 11.4331 20.3825 11.5424 20.2715 11.7216C20.1071 11.1106 19.9757 10.5729 19.8172 10.0441C19.5622 9.19115 19.3719 8.306 19.0092 7.5005C17.777 4.7641 15.5461 3.38403 12.6216 3.18234C8.72163 2.91201 5.79328 4.59164 3.80729 7.91829C2.69248 9.78691 2.10562 11.8144 2.28401 14.0119C2.41452 15.6097 3.03654 17.0453 3.83738 18.4101C5.01448 20.416 6.47463 22.2177 7.90003 24.0452C8.45469 24.7562 8.97883 25.4901 9.47247 26.2638C9.45043 26.254 9.4195 26.2515 9.40637 26.235C7.98096 24.377 6.54242 22.53 5.13694 20.6571C4.09924 19.2758 3.18739 17.816 2.59926 16.1762C1.86664 14.1322 1.9552 12.0945 2.63485 10.0594C2.70943 9.83437 2.78866 9.61149 2.86239 9.38564C2.86748 9.37081 2.84502 9.34581 2.73782 9.29708C2.51875 10.0649 2.25901 10.8229 2.08867 11.6004C1.51622 14.2182 2.20435 16.597 3.57043 18.8143C4.19881 19.8338 4.91872 20.7973 5.54583 21.7117C5.55346 21.9143 5.51151 22.0753 5.57125 22.177C5.77337 22.5215 5.99286 22.86 6.23989 23.1744C6.64369 23.6876 7.06954 24.185 7.49622 24.6808C7.83817 25.0765 8.20638 25.4494 8.54028 25.8528C8.69621 26.0388 8.7979 26.2714 8.88561 26.5125C8.2763 25.824 7.6691 25.1354 7.05852 24.4494C6.33734 23.6393 5.5899 22.8507 4.89584 22.0181C3.81365 20.7211 2.81366 19.3656 2.02342 17.8622C0.672592 15.2928 0.443781 12.6284 1.24504 9.8475C1.80605 7.89795 2.68189 6.12764 4.02424 4.59757C4.05136 4.56707 4.06958 4.52766 4.09246 4.49292C4.06831 4.4747 4.045 4.45605 4.02085 4.43656C3.65221 4.89249 3.26408 5.33316 2.91917 5.80476C2.24248 6.73144 1.76622 7.76448 1.30606 8.81319C0.467934 10.7233 0.283614 12.6936 0.628101 14.7258C0.717083 15.2508 0.889114 15.7618 1.02216 16.2792L1.0281 16.2711C0.883182 15.8538 0.694625 15.4457 0.600983 15.0169C0.0581936 12.5415 0.473442 10.1725 1.48021 7.88905C2.34545 5.92637 3.4912 4.17809 5.31914 2.94887C7.40258 1.54804 9.6928 0.914152 12.1902 0.980676C14.1033 1.03068 15.9279 1.4383 17.5283 2.51752C18.2588 3.01031 18.8766 3.67005 19.5444 4.25563C19.6541 4.35182 19.7583 4.45436 19.8956 4.52258C19.4626 3.80648 18.8982 3.20565 18.2359 2.70862C15.8677 0.928558 13.1809 0.321787 10.2877 0.748053C5.71659 1.42092 2.7768 4.15012 1.07343 8.32845C0.321326 10.1742 0.0370075 12.1009 0.262852 14.0924C0.27853 14.2301 0.252259 14.3729 0.245903 14.5131C0.194209 14.0165 0.142515 13.5199 0.0908203 13.022C0.102685 12.9178 0.125142 12.8127 0.124718 12.7081C0.111159 10.9356 0.467086 9.23607 1.16199 7.61109C2.58612 4.27893 4.92931 1.91414 8.43011 0.79551C8.95976 0.62602 9.50467 0.504412 10.0424 0.360346C10.5157 0.311194 10.989 0.262042 11.4623 0.212891C11.8046 0.228992 12.1474 0.240856 12.4898 0.260348C16.033 0.46204 18.8944 1.88448 20.8426 4.93528C20.9613 5.12087 21.0804 5.30604 21.2041 5.5001C21.9545 4.59546 22.8363 3.89589 23.8074 3.31115C26.2218 1.85948 28.8447 1.40567 31.5942 1.88999C36.7407 2.79633 40.197 5.71875 41.8229 10.7229C42.0279 11.353 42.1593 12.0068 42.3245 12.6492C42.389 13.2652 42.4525 13.8805 42.5165 14.4962ZM3.67933 19.7469C3.26959 18.9592 2.83909 18.1809 2.45519 17.3804C1.83613 16.0906 1.46538 14.7279 1.44885 13.2915C1.42639 11.3979 1.92681 9.62801 2.78358 7.95092C2.82765 7.86405 2.86027 7.77126 2.93146 7.60346C2.1785 8.29752 1.36665 10.9174 1.31665 12.8763C1.25097 15.4529 2.24672 17.6851 3.67933 19.7469ZM17.0232 4.61791C15.1224 2.55057 9.44662 2.27854 7.26953 4.14334C10.622 2.5726 13.8737 2.5315 17.0232 4.61791Z" fill="#3E588F"/>
<path fill-rule="evenodd" clip-rule="evenodd" d="M1.02246 16.2784C1.22754 16.7559 1.43347 17.2343 1.63855 17.7123C1.60593 17.7246 1.57372 17.7373 1.54152 17.7491C1.36991 17.2568 1.19873 16.7644 1.02797 16.2712C1.02839 16.2703 1.02246 16.2784 1.02246 16.2784Z" fill="#3E588F"/>
<path d="M63.5478 14.709C64.8389 14.709 66.0415 14.9748 67.1555 15.5065C68.2695 16.0381 69.1555 16.785 69.8138 17.7471H69.8898V15.1647H73.3076V33.1654C73.2823 35.8237 72.3709 38.0009 70.5733 39.6973C68.7758 41.3937 66.4085 42.2544 63.4718 42.2796C59.7501 42.2796 56.8134 41.2037 54.6613 39.0517L56.9779 36.1655C58.7754 38.115 60.9274 39.0896 63.4338 39.0896C65.5857 39.0896 67.1997 38.539 68.2758 37.4377C69.3518 36.3364 69.8898 34.8363 69.8898 32.9375V30.2032H69.7758C69.1682 31.2666 68.2884 32.0641 67.1365 32.5957C65.9846 33.1274 64.7882 33.3932 63.5478 33.3932C60.9147 33.3932 58.7373 32.5134 57.0159 30.7539C55.2944 28.9943 54.4208 26.8234 54.3955 24.241C54.4208 21.3548 55.2879 19.0508 56.9969 17.3293C58.7058 15.6079 60.8894 14.7343 63.5478 14.709ZM58.0412 24.1651C58.0412 25.9626 58.5665 27.4058 59.6172 28.4943C60.6678 29.5829 62.1173 30.1526 63.9654 30.2033C65.7883 30.2033 67.2251 29.659 68.2757 28.5703C69.3263 27.4816 69.8644 26.0132 69.8897 24.1651C69.8897 22.2916 69.3517 20.7852 68.2757 19.6459C67.1998 18.5066 65.7503 17.9243 63.9275 17.899C62.13 17.899 60.6995 18.494 59.6362 19.6839C58.5728 20.8738 58.0412 22.3675 58.0412 24.1651ZM86.7132 14.709C89.4727 14.709 91.6186 15.5761 93.1502 17.3104C94.6817 19.0447 95.4604 21.4308 95.4857 24.4689V25.4183H81.0548C81.0548 26.8867 81.6434 28.1208 82.8206 29.1209C83.9979 30.121 85.4347 30.6337 87.1309 30.659C89.0044 30.659 90.65 29.7602 92.0678 27.9627L94.6502 29.9374C92.7262 32.3932 90.0676 33.6211 86.6752 33.6211C83.9157 33.6211 81.6939 32.7413 80.0104 30.9818C78.3269 29.2222 77.4597 26.9499 77.409 24.1651C77.409 21.4815 78.2762 19.2471 80.0104 17.4623C81.7447 15.6774 83.9789 14.7597 86.7132 14.709ZM91.84 22.684C91.7894 20.9877 91.3083 19.6901 90.3969 18.7914C89.4855 17.8927 88.2322 17.4433 86.6372 17.4433C85.5739 17.4433 84.6183 17.7028 83.7701 18.2218C82.9219 18.7408 82.2573 19.4117 81.7763 20.2345C81.2953 21.0573 81.0548 21.8738 81.0548 22.684H91.84ZM109.005 14.709C111.031 14.709 112.619 15.3166 113.771 16.5319C114.923 17.7471 115.512 19.3801 115.537 21.4308V33.1654H112.119V22.4182C112.119 21.0257 111.758 19.9245 111.037 19.1142C110.315 18.304 109.309 17.899 108.018 17.899C106.423 17.899 105.189 18.4307 104.315 19.494C103.442 20.5573 103.005 21.9752 103.005 23.7473V33.1654H99.5871V15.1647H103.005V17.937H103.081C103.562 16.9243 104.34 16.1331 105.416 15.5635C106.492 14.9938 107.689 14.709 109.005 14.709ZM125.449 10.1139L125.449 15.1647H130.348V18.1269H125.449V26.7854C125.449 27.95 125.613 28.8488 125.943 29.4817C126.272 30.1146 126.968 30.4311 128.031 30.4311C129.044 30.4311 129.854 30.2539 130.462 29.8995V33.0135C129.803 33.3679 128.765 33.5705 127.348 33.6211C125.98 33.6211 124.923 33.4122 124.177 32.9945C123.43 32.5767 122.885 31.9944 122.544 31.2476C122.202 30.5007 122.031 29.3298 122.031 27.7348V18.1268H118.081V15.1647H122.031V10.1139L125.449 10.1139ZM138.475 4.45544V33.1654H135.057V4.45544H138.475ZM152.146 14.709C154.906 14.709 157.051 15.5761 158.583 17.3104C160.115 19.0447 160.893 21.4308 160.919 24.4689V25.4183H146.488C146.488 26.8867 147.076 28.1208 148.254 29.1209C149.431 30.121 150.868 30.6337 152.564 30.659C154.437 30.659 156.083 29.7602 157.501 27.9627L160.083 29.9374C158.159 32.3932 155.501 33.6211 152.108 33.6211C149.349 33.6211 147.127 32.7413 145.443 30.9818C143.76 29.2222 142.893 26.9499 142.842 24.1651C142.842 21.4815 143.709 19.2471 145.443 17.4623C147.178 15.6774 149.412 14.7597 152.146 14.709ZM157.273 22.684C157.222 20.9877 156.741 19.6901 155.83 18.7914C154.918 17.8927 153.665 17.4433 152.07 17.4433C151.007 17.4433 150.051 17.7028 149.203 18.2218C148.355 18.7408 147.69 19.4117 147.209 20.2345C146.728 21.0573 146.488 21.8738 146.488 22.684H157.273ZM185.375 14.709C188.034 14.709 190.205 15.5824 191.888 17.3294C193.572 19.0763 194.439 21.3548 194.489 24.1651C194.489 26.9753 193.629 29.2474 191.907 30.9818C190.186 32.7161 187.996 33.5959 185.337 33.6211C184.021 33.6211 182.793 33.3426 181.654 32.7856C180.514 32.2286 179.654 31.4945 179.071 30.583H178.995V43.8747H175.577V15.1647H178.995V17.7471H179.071C179.755 16.785 180.654 16.0382 181.767 15.5065C182.881 14.9748 184.084 14.709 185.375 14.709ZM178.995 24.1651C178.995 26.0385 179.546 27.5512 180.647 28.7032C181.748 29.8552 183.173 30.4311 184.919 30.4311C186.742 30.4311 188.179 29.8551 189.23 28.7032C190.28 27.5513 190.818 26.0386 190.844 24.1651C190.844 22.2916 190.306 20.7852 189.23 19.6459C188.154 18.5066 186.704 17.9243 184.882 17.899C183.084 17.899 181.654 18.4876 180.59 19.6649C179.527 20.8421 178.995 22.3422 178.995 24.1651ZM200.756 6.20235C201.439 6.20235 202.028 6.44923 202.521 6.94292C203.015 7.43661 203.262 8.02524 203.262 8.70881C203.262 9.41771 203.009 10.0127 202.502 10.4937C201.996 10.9748 201.414 11.2153 200.756 11.2153C200.047 11.2153 199.452 10.9748 198.971 10.4937C198.49 10.0127 198.249 9.41771 198.249 8.70881C198.249 7.99991 198.502 7.40494 199.009 6.92389C199.515 6.44285 200.097 6.20235 200.756 6.20235ZM202.464 15.1647V33.1654H199.047V15.1647H202.464ZM216.136 14.709C218.895 14.709 221.041 15.5761 222.573 17.3104C224.104 19.0447 224.883 21.4308 224.908 24.4689V25.4183H210.477C210.477 26.8867 211.066 28.1208 212.243 29.1209C213.421 30.121 214.857 30.6337 216.554 30.659C218.427 30.659 220.073 29.7602 221.491 27.9627L224.073 29.9374C222.149 32.3932 219.49 33.6211 216.098 33.6211C213.338 33.6211 211.117 32.7413 209.433 30.9818C207.75 29.2222 206.882 26.9499 206.832 24.1651C206.832 21.4815 207.699 19.2471 209.433 17.4623C211.167 15.6774 213.402 14.7597 216.136 14.709ZM221.263 22.684C221.212 20.9877 220.731 19.6901 219.82 18.7914C218.908 17.8927 217.655 17.4433 216.06 17.4433C214.997 17.4433 214.041 17.7028 213.193 18.2218C212.345 18.7408 211.68 19.4117 211.199 20.2345C210.718 21.0573 210.477 21.8738 210.477 22.684H221.263ZM237.896 14.709C238.529 14.709 239.035 14.785 239.415 14.9369L239.263 18.6205C238.605 18.4433 238.035 18.3547 237.554 18.3547C234.187 18.3547 232.478 20.2282 232.428 23.9752V33.1654H229.01V15.1647H232.428V17.937H232.504C232.959 16.9749 233.694 16.1964 234.706 15.6014C235.719 15.0065 236.782 14.709 237.896 14.709ZM250.922 14.747C253.783 14.747 256.087 15.6964 257.834 17.5952L255.251 19.9497C254.011 18.6079 252.517 17.937 250.77 17.937C249.099 17.937 247.745 18.5319 246.707 19.7219C245.669 20.9118 245.15 22.4434 245.15 24.317C245.15 26.0892 245.694 27.5449 246.783 28.6842C247.871 29.8235 249.264 30.4058 250.96 30.4311C252.758 30.4311 254.213 29.7602 255.327 28.4184L257.758 30.8489C256.137 32.697 253.859 33.6211 250.922 33.6211C248.162 33.6211 245.916 32.7603 244.181 31.0387C242.447 29.3172 241.555 27.0512 241.504 24.241C241.529 21.3801 242.422 19.0888 244.181 17.3673C245.941 15.6459 248.188 14.7722 250.922 14.747ZM262.657 6.20235C263.34 6.20235 263.929 6.44923 264.423 6.94292C264.916 7.43661 265.163 8.02524 265.163 8.70881C265.163 9.41771 264.91 10.0127 264.404 10.4937C263.897 10.9748 263.315 11.2153 262.657 11.2153C261.948 11.2153 261.353 10.9748 260.872 10.4937C260.391 10.0127 260.15 9.41771 260.15 8.70881C260.15 7.99991 260.403 7.40494 260.91 6.92389C261.416 6.44285 261.998 6.20235 262.657 6.20235ZM264.366 15.1647V33.1654H260.948V15.1647H264.366ZM279.214 14.709C281.24 14.709 282.828 15.3166 283.98 16.5319C285.132 17.7471 285.721 19.3801 285.746 21.4308V33.1654H282.328V22.4182C282.328 21.0257 281.968 19.9245 281.246 19.1142C280.524 18.304 279.518 17.899 278.227 17.899C276.632 17.899 275.398 18.4307 274.524 19.494C273.651 20.5573 273.214 21.9752 273.214 23.7473V33.1654H269.796V15.1647H273.214V17.937H273.29C273.771 16.9243 274.55 16.1331 275.626 15.5635C276.701 14.9938 277.898 14.709 279.214 14.709ZM299.19 14.709C300.481 14.709 301.683 14.9748 302.797 15.5065C303.911 16.0381 304.797 16.785 305.456 17.7471H305.532V15.1647H308.95V33.1654C308.924 35.8237 308.013 38.0009 306.215 39.6973C304.418 41.3937 302.05 42.2544 299.114 42.2796C295.392 42.2796 292.455 41.2037 290.303 39.0517L292.62 36.1655C294.417 38.115 296.569 39.0896 299.076 39.0896C301.228 39.0896 302.842 38.539 303.918 37.4377C304.994 36.3364 305.532 34.8363 305.532 32.9375V30.2032H305.418C304.81 31.2666 303.93 32.0641 302.778 32.5957C301.627 33.1274 300.43 33.3932 299.19 33.3932C296.557 33.3932 294.379 32.5134 292.658 30.7539C290.936 28.9943 290.063 26.8234 290.037 24.241C290.063 21.3548 290.93 19.0508 292.639 17.3293C294.348 15.6079 296.531 14.7343 299.19 14.709ZM293.683 24.1651C293.683 25.9626 294.208 27.4058 295.259 28.4943C296.31 29.5829 297.759 30.1526 299.607 30.2033C301.43 30.2033 302.867 29.659 303.918 28.5703C304.968 27.4816 305.506 26.0132 305.532 24.1651C305.532 22.2916 304.994 20.7852 303.918 19.6459C302.842 18.5066 301.392 17.9243 299.569 17.899C297.772 17.899 296.341 18.494 295.278 19.6839C294.215 20.8738 293.683 22.3675 293.683 24.1651Z" fill="#111111"/>
</g>
<defs>
<clipPath id="clip0_88_6563">
<rect width="309" height="44" fill="white"/>
</clipPath>
</defs>
</svg>
